# xmcd
#
# Track frame offsets: 
#        150
#        16211
#        28207
#        40313
#        55802
#        75959
#        91750
#        106659
#        120703
#        133099
#
# Disc length: 1967 seconds
#
# Revision: 0
# Processed by: cddbd v1.5.2PL0 Copyright (c) Steve Scherf et al.
# Submitted via: ExactAudioCopy v1.1
#
DISCID=7107ad0a
DTITLE=Jon Shain - Gettin' Handy with the Blues
DYEAR=2018
DGENRE=Blues
TTITLE0=St. Louis Blues
TTITLE1=The (new) Memphis Blues
TTITLE2=Beale Street Blues
TTITLE3=Aunt Hagar's Children Blues
TTITLE4=Joe Turner Blues
TTITLE5=Fuzzy Wuzzy Rag
TTITLE6=Crazy Blues
TTITLE7=That Thing Called Love
TTITLE8=Deep River Blues
TTITLE9=Down Home Blues
EXTD=
EXTT0=
EXTT1=
EXTT2=
EXTT3=
EXTT4=
EXTT5=
EXTT6=
EXTT7=
EXTT8=
EXTT9=
PLAYORDER=
